<?xml version="1.0" encoding="utf-8"?>
<!-- Generator: Adobe Illustrator 28.0.0, SVG Export Plug-In . SVG Version: 6.00 Build 0)  -->
<svg version="1.1" id="Layer_1" xmlns="http://www.w3.org/2000/svg" xmlns:xlink="http://www.w3.org/1999/xlink" x="0px" y="0px"
	 viewBox="0 0 100 100" style="enable-background:new 0 0 100 100;" xml:space="preserve">
<g>
	<path d="M50,30c4.96,0,9,4.04,9,9c0,4.96-4.04,9-9,9c-4.96,0-9-4.04-9-9C41,34.04,45.04,30,50,30 M50,29L50,29
		c-5.52,0-10,4.48-10,10v0c0,5.52,4.48,10,10,10h0c5.52,0,10-4.48,10-10v0C60,33.48,55.52,29,50,29L50,29z"/>
</g>
<g>
	<path d="M52.48,52C59.94,52,66,58.06,66,65.52V66c0,1.1-0.9,2-2,2H36.48C35.11,68,34,66.89,34,65.51C34,58.06,40.06,52,47.51,52
		H52.48 M52.48,51h-4.97C39.5,51,33,57.5,33,65.51v0c0,1.92,1.56,3.48,3.48,3.48H64c1.66,0,3-1.34,3-3v-0.48
		C67,57.5,60.5,51,52.48,51L52.48,51z"/>
</g>
</svg>
